HIERARCHY
ROOT joint_Root
{
  OFFSET 0 0 0
  CHANNELS 6 Xposition Yposition Zposition Zrotation Xrotation Yrotation
  JOINT Hips
  {
    OFFSET 0 93.9241 -3
    CHANNELS 6 Xposition Yposition Zposition Zrotation Xrotation Yrotation
    JOINT Spine
    {
      OFFSET 15.7357 0 0
      CHANNELS 6 Xposition Yposition Zposition Zrotation Xrotation Yrotation
      JOINT Chest
      {
        OFFSET 8.98455 -0.406207 0
        CHANNELS 6 Xposition Yposition Zposition Zrotation Xrotation Yrotation
        JOINT Neck
        {
          OFFSET 16.3773 0 0
          CHANNELS 6 Xposition Yposition Zposition Zrotation Xrotation Yrotation
          JOINT Head
          {
            OFFSET 6.45672 0 0
            CHANNELS 6 Xposition Yposition Zposition Zrotation Xrotation Yrotation
            End Site
            {
              OFFSET 0 0 0
            }
          }
        }
        JOINT Shoulder_L
        {
          OFFSET 12.9942 -0.242716 4.98039
          CHANNELS 6 Xposition Yposition Zposition Zrotation Xrotation Yrotation
          JOINT UpperArm_L
          {
            OFFSET 5.34809 0 0
            CHANNELS 6 Xposition Yposition Zposition Zrotation Xrotation Yrotation
            JOINT LowerArm_L
            {
              OFFSET 24.3286 1.87007e-05 0
              CHANNELS 6 Xposition Yposition Zposition Zrotation Xrotation Yrotation
              JOINT Hand_L
              {
                OFFSET 22.2916 0 0
                CHANNELS 6 Xposition Yposition Zposition Zrotation Xrotation Yrotation
                End Site
                {
                  OFFSET 0 0 0
                }
              }
            }
          }
        }
        JOINT Shoulder_R
        {
          OFFSET 12.9945 -0.242716 -4.98039
          CHANNELS 6 Xposition Yposition Zposition Zrotation Xrotation Yrotation
          JOINT UpperArm_R
          {
            OFFSET -5.34813 0 0
            CHANNELS 6 Xposition Yposition Zposition Zrotation Xrotation Yrotation
            JOINT LowerArm_R
            {
              OFFSET -24.3289 0.000322201 0
              CHANNELS 6 Xposition Yposition Zposition Zrotation Xrotation Yrotation
              JOINT Hand_R
              {
                OFFSET -22.2915 -0.000108084 0
                CHANNELS 6 Xposition Yposition Zposition Zrotation Xrotation Yrotation
                End Site
                {
                  OFFSET 0 0 0
                }
              }
            }
          }
        }
      }
    }
    JOINT UpperLeg_L
    {
      OFFSET -2.19248 -6.46944 0
      CHANNELS 6 Xposition Yposition Zposition Zrotation Xrotation Yrotation
      JOINT LowerLeg_L
      {
        OFFSET 39.0811 0 -1.23785e-05
        CHANNELS 6 Xposition Yposition Zposition Zrotation Xrotation Yrotation
        JOINT Foot_L
        {
          OFFSET 40.9854 0 -1.26872e-05
          CHANNELS 6 Xposition Yposition Zposition Zrotation Xrotation Yrotation
          JOINT Toes_L
          {
            OFFSET 11.7543 0 0
            CHANNELS 6 Xposition Yposition Zposition Zrotation Xrotation Yrotation
            End Site
            {
              OFFSET 0 0 0
            }
          }
        }
      }
    }
    JOINT UpperLeg_R
    {
      OFFSET -2.19251 6.46944 0
      CHANNELS 6 Xposition Yposition Zposition Zrotation Xrotation Yrotation
      JOINT LowerLeg_R
      {
        OFFSET -39.0811 -0.00228153 -0.0401928
        CHANNELS 6 Xposition Yposition Zposition Zrotation Xrotation Yrotation
        JOINT Foot_R
        {
          OFFSET -40.9854 0 0
          CHANNELS 6 Xposition Yposition Zposition Zrotation Xrotation Yrotation
          JOINT Toes_R
          {
            OFFSET -11.7543 0 0
            CHANNELS 6 Xposition Yposition Zposition Zrotation Xrotation Yrotation
            End Site
            {
              OFFSET 0 0 0
            }
          }
        }
      }
    }
  }
}
MOTION
Frames:	4
Frame Time:	0.0333333
0 0 0 0 0 -0 -2.75278 89.3932 -1.41948 82.919 3.7441 2.12158 15.7357 5.1072e-06 -5.51765e-07 148.883 88.2982 -148.543 8.98455 -0.406207 -4.3199e-07 -6.01976 2.86868 0.831731 16.3773 -1.3905e-06 -6.99897e-07 -8.13311 -5.39632 2.52652 6.45672 -1.25837e-06 -1.02172e-07 -1.98422 -9.58103 6.37397 12.9942 -0.242716 4.98039 -89.4838 -1.60685 -87.1917 5.34809 -7.22636e-06 -6.2814e-07 -61.3789 61.2025 29.3326 24.3286 1.87007e-05 4.90208e-06 -101.057 42.0017 -82.5497 22.2916 -9.88446e-07 4.63217e-06 44.2675 1.31466 55.5435 12.9945 -0.242716 -4.98039 90.2317 -0.890179 -90.4169 -5.34813 -1.25947e-06 -3.79883e-06 -75.901 59.2611 45.3789 -24.3289 0.000322201 -8.65921e-06 -91.6428 38.3721 -88.9805 -22.2915 -0.000108084 -4.47941e-06 40.8495 1.58668 52.7146 -2.19248 -6.46944 -1.22534e-07 -171.895 6.80755 -25.1271 39.0811 -6.73843e-06 -1.23785e-05 -0.43781 0.144224 70.5906 40.9854 -6.48686e-06 -1.26872e-05 5.17216 -10.3598 -47.4374 11.7543 -2.30145e-07 3.05095e-06 0.448621 -0.544648 -21.7199 -2.19251 6.46944 -1.45247e-06 -163.98 3.58283 170.686 -39.0811 -0.00228153 -0.0401928 0.280774 -0.428365 29.2163 -40.9854 7.72618e-06 5.99936e-06 5.38808 -14.0702 -69.4303 -11.7543 -5.6619e-06 -5.58687e-06 -0.0503916 0.0359256 -16.5733 
0 0 0 0 0 -0 -2.55521 89.5548 -0.123709 83.7925 3.7731 1.93011 15.7357 5.1072e-06 -5.51765e-07 150.124 87.9702 -150.243 8.98455 -0.406207 -4.3199e-07 -5.7462 3.52941 -0.0612273 16.3773 -1.3905e-06 -6.99897e-07 -8.19068 -5.73955 2.8214 6.45672 -1.25837e-06 -1.02172e-07 -1.99824 -10.3517 7.17051 12.9942 -0.242716 4.98039 -89.4861 -1.54257 -86.5692 5.34809 -7.22636e-06 -6.2814e-07 -61.4881 59.6101 29.8388 24.3286 1.87007e-05 4.90208e-06 -101.17 42.3173 -82.4281 22.2916 -9.88446e-07 4.63217e-06 44.2698 1.27387 55.9646 12.9945 -0.242716 -4.98039 90.2168 -0.846898 -90.6388 -5.34813 -1.25947e-06 -3.79883e-06 -77.4714 59.3265 46.7145 -24.3289 0.000322201 -8.65921e-06 -90.857 38.1844 -89.4706 -22.2915 -0.000108084 -4.47941e-06 40.6998 1.61375 52.4306 -2.19248 -6.46944 -1.22534e-07 -173.031 8.56421 -28.6656 39.0811 -6.73843e-06 -1.23785e-05 -0.444662 0.172555 67.5498 40.9854 -6.48686e-06 -1.26872e-05 6.70653 -12.9815 -49.0355 11.7543 -2.30145e-07 3.05095e-06 0.459757 -0.559545 -21.8553 -2.19251 6.46944 -1.45247e-06 -164.998 3.67141 171.962 -39.0811 -0.00228153 -0.0401928 0.238101 -0.369105 28.3779 -40.9854 7.72618e-06 5.99936e-06 5.13541 -14.0452 -70.0126 -11.7543 -5.6619e-06 -5.58687e-06 -0.0302271 0.0215404 -16.5735 
0 0 0 0 0 -0 -2.35302 89.7424 1.10601 84.5389 3.80766 1.69301 15.7357 5.1072e-06 -5.51765e-07 151.081 87.6855 -151.581 8.98455 -0.406207 -4.3199e-07 -5.51718 4.10466 -0.803298 16.3773 -1.3905e-06 -6.99897e-07 -8.16995 -5.97839 2.88659 6.45672 -1.25837e-06 -1.02172e-07 -1.97316 -11.1061 7.86327 12.9942 -0.242716 4.98039 -89.5215 -1.39012 -85.9997 5.34809 -7.22636e-06 -6.2814e-07 -61.1834 58.404 29.9532 24.3286 1.87007e-05 4.90208e-06 -101.386 42.6943 -82.224 22.2916 -9.88446e-07 4.63217e-06 44.2687 1.2429 56.2841 12.9945 -0.242716 -4.98039 90.1877 -0.746962 -90.8905 -5.34813 -1.25947e-06 -3.79883e-06 -78.911 59.2328 47.9671 -24.3289 0.000322201 -8.65921e-06 -90.5258 38.0193 -89.6766 -22.2915 -0.000108084 -4.47941e-06 40.7741 1.65483 51.9994 -2.19248 -6.46944 -1.22534e-07 -173.756 9.93254 -31.2853 39.0811 -6.73843e-06 -1.23785e-05 -0.370969 0.183043 62.2732 40.9854 -6.48686e-06 -1.26872e-05 6.16843 -13.5447 -51.0939 11.7543 -2.30145e-07 3.05095e-06 0.467464 -0.569852 -21.949 -2.19251 6.46944 -1.45247e-06 -165.952 4.1848 173.291 -39.0811 -0.00228153 -0.0401928 0.189976 -0.300651 27.1987 -40.9854 7.72618e-06 5.99936e-06 4.9956 -13.6638 -70.394 -11.7543 -5.6619e-06 -5.58687e-06 -0.0338463 0.0241003 -16.5734 
0 0 0 0 0 -0 -2.1563 89.8956 2.27741 85.02 3.94177 1.32296 15.7357 5.1072e-06 -5.51765e-07 152.442 87.4642 -153.215 8.98455 -0.406207 -4.3199e-07 -5.3977 4.57949 -1.33242 16.3773 -1.3905e-06 -6.99897e-07 -8.15394 -6.18556 2.7999 6.45672 -1.25837e-06 -1.02172e-07 -1.90204 -11.8063 8.51764 12.9942 -0.242716 4.98039 -89.5535 -1.26697 -85.5858 5.34809 -7.22636e-06 -6.2814e-07 -60.6706 57.548 29.8188 24.3286 1.87007e-05 4.90208e-06 -101.786 42.9249 -81.9119 22.2916 -9.88446e-07 4.63217e-06 44.1933 1.24214 56.2918 12.9945 -0.242716 -4.98039 90.131 -0.525448 -91.0001 -5.34813 -1.25947e-06 -3.79883e-06 -79.8417 59.1128 48.8346 -24.3289 0.000322201 -8.65921e-06 -90.1686 37.7535 -89.8971 -22.2915 -0.000108084 -4.47941e-06 40.3761 1.65471 52.0008 -2.19248 -6.46944 -1.22534e-07 -174.319 10.4531 -32.9506 39.0811 -6.73843e-06 -1.23785e-05 -0.277086 0.191811 54.8226 40.9854 -6.48686e-06 -1.26872e-05 5.72793 -14.4854 -52.3201 11.7543 -2.30145e-07 3.05095e-06 0.464978 -0.56652 -21.9188 -2.19251 6.46944 -1.45247e-06 -166.615 4.80406 174.448 -39.0811 -0.00228153 -0.0401928 0.148448 -0.239563 25.8913 -40.9854 7.72618e-06 5.99936e-06 4.88886 -13.2988 -70.6504 -11.7543 -5.6619e-06 -5.58687e-06 -0.0655554 0.0465917 -16.5731 
